HIERARCHY
ROOT Hips
{
	OFFSET 0.00000 0.00000 0.00000
	CHANNELS 6 Xposition Yposition Zposition Zrotation Yrotation Xrotation 
	JOINT LHipJoint
	{
		OFFSET 0 0 0
		CHANNELS 3 Zrotation Yrotation Xrotation
		JOINT LeftUpLeg
		{
			OFFSET 1.75344 -1.53157 0.77399
			CHANNELS 3 Zrotation Yrotation Xrotation
			JOINT LeftLeg
			{
				OFFSET 2.25415 -6.19323 0.00000
				CHANNELS 3 Zrotation Yrotation Xrotation
				JOINT LeftFoot
				{
					OFFSET 2.30342 -6.32861 0.00000
					CHANNELS 3 Zrotation Yrotation Xrotation
					JOINT LeftToeBase
					{
						OFFSET 0.10958 -0.30108 1.49206
						CHANNELS 3 Zrotation Yrotation Xrotation
						End Site
						{
							OFFSET 0.00000 -0.00000 0.77783
						}
					}
				}
			}
		}
	}
	JOINT RHipJoint
	{
		OFFSET 0 0 0
		CHANNELS 3 Zrotation Yrotation Xrotation
		JOINT RightUpLeg
		{
			OFFSET -1.81912 -1.53156 0.77399
			CHANNELS 3 Zrotation Yrotation Xrotation
			JOINT RightLeg
			{
				OFFSET -2.22882 -6.12365 0.00000
				CHANNELS 3 Zrotation Yrotation Xrotation
				JOINT RightFoot
				{
					OFFSET -2.21943 -6.09785 0.00000
					CHANNELS 3 Zrotation Yrotation Xrotation
					JOINT RightToeBase
					{
						OFFSET -0.18931 -0.52012 1.59379
						CHANNELS 3 Zrotation Yrotation Xrotation
						End Site
						{
							OFFSET -0.00000 -0.00000 0.84686
						}
					}
				}
			}
		}
	}
	JOINT LowerBack
	{
		OFFSET 0 0 0
		CHANNELS 3 Zrotation Yrotation Xrotation
		JOINT Spine
		{
			OFFSET -0.00200 1.66634 -0.14248
			CHANNELS 3 Zrotation Yrotation Xrotation
			JOINT Spine1
			{
				OFFSET -0.00875 1.64542 0.09514
				CHANNELS 3 Zrotation Yrotation Xrotation
				JOINT Neck
				{
					OFFSET 0 0 0
					CHANNELS 3 Zrotation Yrotation Xrotation
					JOINT Neck1
					{
						OFFSET 0.02257 1.59605 0.00839
						CHANNELS 3 Zrotation Yrotation Xrotation
						JOINT Head
						{
							OFFSET -0.10214 1.57530 -0.23335
							CHANNELS 3 Zrotation Yrotation Xrotation
							End Site
							{
								OFFSET -0.03588 1.60717 -0.08062
							}
						}
					}
				}
				JOINT LeftShoulder
				{
					OFFSET 0 0 0
					CHANNELS 3 Zrotation Yrotation Xrotation
					JOINT LeftArm
					{
						OFFSET 2.54983 1.10186 0.40078
						CHANNELS 3 Zrotation Yrotation Xrotation
						JOINT LeftForeArm
						{
							OFFSET 4.28840 -0.00000 0.00000
							CHANNELS 3 Zrotation Yrotation Xrotation
							JOINT LeftHand
							{
								OFFSET 3.06552 -0.00000 -0.00000
								CHANNELS 3 Zrotation Yrotation Xrotation
								JOINT LeftFingerBase
								{
									OFFSET 0 0 0
									CHANNELS 3 Zrotation Yrotation Xrotation
									JOINT LeftHandIndex1
									{
										OFFSET 0.75304 -0.00000 0.00000
										CHANNELS 3 Zrotation Yrotation Xrotation
										End Site
										{
											OFFSET 0.60712 -0.00000 0.00000
										}
									}
								}
								JOINT LThumb
								{
									OFFSET 0 0 0
									CHANNELS 3 Zrotation Yrotation Xrotation
									End Site
									{
										OFFSET 0.61639 -0.00000 0.61639
									}
								}
							}
						}
					}
				}
				JOINT RightShoulder
				{
					OFFSET 0 0 0
					CHANNELS 3 Zrotation Yrotation Xrotation
					JOINT RightArm
					{
						OFFSET -2.60909 1.35448 0.21802
						CHANNELS 3 Zrotation Yrotation Xrotation
						JOINT RightForeArm
						{
							OFFSET -4.52172 -0.00000 -0.00000
							CHANNELS 3 Zrotation Yrotation Xrotation
							JOINT RightHand
							{
								OFFSET -2.89140 -0.00000 0.00000
								CHANNELS 3 Zrotation Yrotation Xrotation
								JOINT RightFingerBase
								{
									OFFSET 0 0 0
									CHANNELS 3 Zrotation Yrotation Xrotation
									JOINT RightHandIndex1
									{
										OFFSET -0.68054 -0.00000 0.00000
										CHANNELS 3 Zrotation Yrotation Xrotation
										End Site
										{
											OFFSET -0.54867 -0.00000 0.00000
										}
									}
								}
								JOINT RThumb
								{
									OFFSET 0 0 0
									CHANNELS 3 Zrotation Yrotation Xrotation
									End Site
									{
										OFFSET -0.55705 -0.00000 0.55705
									}
								}
							}
						}
					}
				}
			}
		}
	}
}
MOTION
Frames: 15
Frame Time: .0083333
9.8812 15.1911 -37.7019 0.1508 7.3128 0.8727 0.0000 0.0000 0.0000 -25.4146 -21.9896 -9.0327 3.3903 11.3016 33.3038 1.6614 -7.6539 -23.0891 1.7439 -8.3109 -23.6625 0.0000 0.0000 0.0000 27.0144 13.6005 -0.0257 -2.7005 -10.1937 29.6062 -1.9336 -17.1800 -37.0411 -0.0498 -1.4399 3.9601 -2.1945 1.2767 3.5370 1.6448 1.6548 -2.2616 2.8110 0.9164 -4.4335 -7.3177 -7.9591 -3.9400 17.1796 -15.9789 32.2993 6.0254 -6.1548 13.7287 -0.0000 -0.0000 0.0000 -83.7214 10.7346 28.6600 18.2104 -28.4257 -4.6489 -0.0000 -0.0000 18.3368 -7.1832 -25.5619 3.1127 -7.1250 0.0000 -0.0000 -21.9768 5.7010 21.3599 -0.0000 -0.0000 0.0000 82.6317 -10.7139 36.9676 -16.0388 25.5733 -3.6627 0.0000 0.0000 19.0621 -13.7260 -48.3995 10.3510 7.1250 -0.0000 -0.0000 49.7591 -74.3919 -36.5807
9.8762 15.1946 -37.7043 0.2578 7.7338 0.9983 0.0000 0.0000 0.0000 -25.4692 -22.1555 -9.1311 3.3784 11.2838 33.2431 1.6115 -8.0728 -22.7297 1.5513 -7.8613 -22.2937 0.0000 0.0000 0.0000 26.9056 13.5193 -0.1404 -2.6901 -10.1757 29.5476 -1.8842 -17.4865 -37.0525 -0.0489 -1.4267 3.9236 -2.3442 1.2765 3.5068 1.5635 1.6440 -2.3735 2.8112 0.9171 -4.5343 -7.3098 -8.0147 -4.0018 17.1039 -16.0150 32.2162 5.9771 -6.1751 13.7007 0.0000 -0.0000 0.0000 -83.7162 11.0214 28.6125 18.2087 -28.4236 -4.6482 -0.0000 -0.0000 18.2096 -7.1471 -25.2121 3.0574 -7.1250 0.0000 -0.0000 -21.9818 6.0276 21.2176 0.0000 -0.0000 0.0000 82.7507 -10.8157 37.5746 -15.8497 25.3165 -3.5815 0.0000 0.0000 19.8194 -14.6392 -47.8725 10.9640 7.1250 -0.0000 -0.0000 47.3716 -74.4334 -34.6837
9.8757 15.1956 -37.6976 0.3229 7.9715 1.0420 0.0000 0.0000 0.0000 -25.5515 -22.2877 -9.0834 3.3685 11.2690 33.1926 1.6011 -8.2690 -22.6566 1.4125 -7.5169 -21.2561 0.0000 0.0000 0.0000 26.8438 13.4029 -0.1429 -2.6819 -10.1614 29.5009 -1.8522 -17.7273 -37.0995 -0.0211 -0.9371 2.5757 -2.2679 1.3656 3.6596 1.3586 1.7562 -2.6034 2.5412 0.9736 -4.8592 -7.1909 -8.1077 -4.0682 17.0235 -16.1634 32.3200 5.9022 -6.2236 13.7703 -0.0000 -0.0000 0.0000 -83.4840 11.5552 28.7963 18.2329 -28.4543 -4.6597 -0.0000 -0.0000 18.1433 -7.1180 -25.0865 3.0307 -7.1250 0.0000 -0.0000 -21.9746 6.1447 21.1562 -0.0000 -0.0000 0.0000 83.1672 -10.9398 37.8770 -15.6509 25.0450 -3.4969 0.0000 0.0000 19.5054 -14.3489 -47.9206 10.7504 7.1250 -0.0000 -0.0000 47.7739 -74.3521 -34.9338
9.8880 15.1912 -37.6713 0.3242 7.7710 0.8245 0.0000 0.0000 0.0000 -25.7830 -22.3223 -8.6146 3.3665 11.2659 33.1819 1.6416 -7.8939 -22.9456 1.4480 -7.6067 -21.5258 0.0000 0.0000 0.0000 26.8290 13.2768 0.2079 -2.6670 -10.1354 29.4165 -1.8405 -17.7152 -37.0285 -0.0065 -0.5202 1.4295 -1.9166 1.6186 3.5689 1.0947 2.1042 -2.6222 2.0439 1.1293 -4.8245 -7.0052 -8.2224 -4.2049 16.9655 -16.3622 32.4276 5.8142 -6.2790 13.8636 -0.0000 -0.0000 0.0000 -83.1211 12.0973 29.2199 18.3168 -28.5610 -4.6997 -0.0000 -0.0000 17.8310 -7.0885 -25.0829 3.0177 -7.1250 0.0000 -0.0000 -21.9583 6.1475 21.1365 -0.0000 -0.0000 0.0000 83.5891 -11.0665 38.2505 -15.2950 24.5554 -3.3476 0.0000 0.0000 19.8992 -15.1812 -47.3745 11.2907 7.1250 -0.0000 -0.0000 45.4072 -74.3371 -33.0254
9.8858 15.1874 -37.6766 0.3294 8.2061 0.7372 0.0000 0.0000 0.0000 -25.8390 -22.5098 -8.5172 3.3768 11.2814 33.2350 1.6234 -8.1194 -22.8149 1.4835 -7.6953 -21.7924 0.0000 0.0000 0.0000 26.8413 12.9679 0.2814 -2.6449 -10.0968 29.2906 -1.8508 -17.8012 -37.1579 -0.0083 -0.5885 1.6172 -2.2052 1.6493 3.2410 1.2705 2.1423 -2.3708 2.3976 1.1537 -4.3968 -7.1550 -8.2789 -4.3912 16.8656 -16.3140 32.1226 5.7769 -6.2847 13.7560 0.0000 0.0000 0.0000 -83.5114 11.9625 29.3905 18.2885 -28.5250 -4.6862 -0.0000 -0.0000 17.6517 -5.9866 -25.3216 2.5681 -7.1250 0.0000 -0.0000 -21.3201 5.9009 20.5266 0.0000 0.0000 0.0000 83.2375 -10.7191 39.1098 -15.4167 24.7233 -3.3983 0.0000 0.0000 18.5590 -14.5875 -48.1707 10.9745 7.1250 -0.0000 -0.0000 48.3176 -74.5878 -35.5897
9.8787 15.1821 -37.6698 0.3094 8.7018 0.5291 0.0000 0.0000 0.0000 -25.9029 -22.6418 -8.2557 3.3968 11.3113 33.3370 1.6139 -8.3605 -22.7489 1.5031 -7.7437 -21.9382 0.0000 0.0000 0.0000 27.0264 12.7119 0.6480 -2.6154 -10.0448 29.1220 -1.8765 -18.0253 -37.4871 -0.0167 -0.8336 2.2912 -2.1893 1.5725 3.5729 1.2096 2.0321 -2.4854 2.3236 1.1018 -4.6952 -7.2730 -8.2104 -4.3457 16.9282 -16.1993 32.0712 5.8421 -6.2465 13.7199 -0.0000 -0.0000 0.0000 -83.4717 12.5190 29.5217 18.3238 -28.5698 -4.7031 -0.0000 -0.0000 17.5551 -7.0604 -24.7672 2.9702 -7.1250 0.0000 -0.0000 -21.9658 6.4424 21.0105 -0.0000 -0.0000 0.0000 83.3368 -11.0134 39.8872 -15.5338 24.8845 -3.4475 0.0000 0.0000 17.8763 -13.9984 -48.4586 10.5695 7.1250 -0.0000 -0.0000 49.7085 -74.5281 -36.6673
9.8887 15.1803 -37.6519 0.1674 8.5026 0.3495 0.0000 0.0000 0.0000 -25.8898 -22.6243 -8.0002 3.4155 11.3391 33.4323 1.6408 -8.0788 -22.9392 1.5224 -7.7910 -22.0811 0.0000 0.0000 0.0000 27.1657 12.6223 0.9257 -2.5899 -9.9995 28.9751 -1.8543 -17.9545 -37.3116 -0.0202 -0.9183 2.5242 -1.9991 1.6973 3.2515 1.2682 2.2167 -2.3176 2.2746 1.1831 -4.3432 -7.4748 -8.1673 -4.3888 16.9919 -16.0739 31.8503 5.9088 -6.2154 13.6317 0.0000 0.0000 0.0000 -83.6845 12.7496 29.4203 18.3179 -28.5623 -4.7002 -0.0000 -0.0000 17.7622 -6.8890 -24.7571 2.8964 -7.1250 0.0000 -0.0000 -21.8697 6.4489 20.8994 0.0000 0.0000 0.0000 83.2042 -11.0116 40.7937 -15.6205 25.0034 -3.4840 0.0000 0.0000 17.5057 -13.9671 -48.2976 10.5197 7.1250 -0.0000 -0.0000 49.2428 -74.4256 -36.1916
9.8826 15.1818 -37.6557 0.0328 8.9107 0.3487 0.0000 0.0000 0.0000 -25.6839 -22.6808 -8.1185 3.4280 11.3576 33.4957 1.6269 -8.4901 -22.8436 1.5329 -7.8165 -22.1582 0.0000 0.0000 0.0000 27.3648 12.4888 0.9344 -2.5680 -9.9606 28.8491 -1.8219 -18.1057 -37.2804 -0.0438 -1.3514 3.7163 -1.9538 1.6454 3.1879 1.2924 2.1513 -2.2811 2.2813 1.1486 -4.2646 -7.5020 -8.1830 -4.5548 16.9646 -16.0480 31.7009 5.8890 -6.2059 13.5949 -0.0000 0.0000 0.0000 -83.7885 12.8895 29.2325 18.2380 -28.4609 -4.6621 -0.0000 -0.0000 18.1026 -6.6584 -25.1426 2.8395 -7.1250 0.0000 -0.0000 -21.7118 6.0836 20.8864 -0.0000 0.0000 0.0000 83.1561 -11.0727 41.7417 -15.7494 25.1797 -3.5387 0.0000 0.0000 17.2812 -14.3664 -48.0403 10.7836 7.1250 -0.0000 -0.0000 48.1167 -74.4287 -35.2808
9.8770 15.1834 -37.6548 0.0479 9.2348 0.4273 0.0000 0.0000 0.0000 -25.6443 -22.7312 -8.2575 3.4348 11.3677 33.5302 1.6254 -8.7697 -22.8389 1.6127 -8.0079 -22.7382 0.0000 0.0000 0.0000 27.3732 12.3765 0.8860 -2.5526 -9.9330 28.7599 -1.7721 -18.2994 -37.1996 -0.0662 -1.6596 4.5659 -2.0560 1.6677 3.0095 1.2523 2.1775 -2.2620 2.3006 1.1626 -4.1475 -7.5266 -8.2519 -4.7182 16.9791 -16.1144 31.5407 5.8715 -6.2325 13.5752 -0.0000 0.0000 0.0000 -83.7874 13.0545 29.4045 18.1953 -28.4065 -4.6418 -0.0000 -0.0000 18.1578 -6.7367 -25.3981 2.9003 -7.1250 0.0000 -0.0000 -21.7379 5.8460 21.0224 -0.0000 0.0000 0.0000 83.1803 -11.1411 42.3865 -15.8280 25.2869 -3.5722 0.0000 0.0000 17.1560 -14.3899 -48.0629 10.8053 7.1250 -0.0000 -0.0000 48.1646 -74.4507 -35.3397
9.8719 15.1830 -37.6520 0.1083 9.4537 0.3864 0.0000 0.0000 0.0000 -25.7136 -22.6904 -8.2271 3.4389 11.3737 33.5509 1.6147 -8.9596 -22.7691 1.7099 -8.2338 -23.4265 0.0000 0.0000 0.0000 27.3270 12.1428 0.9220 -2.5411 -9.9122 28.6929 -1.7026 -18.5232 -37.0462 -0.0648 -1.6423 4.5180 -2.1277 1.7464 2.9247 1.1450 2.2764 -2.2169 2.2264 1.2106 -4.0566 -7.5701 -8.3111 -4.7342 17.1222 -16.1884 31.2868 5.9111 -6.2644 13.5005 0.0000 0.0000 0.0000 -83.6495 13.2745 29.8841 18.1739 -28.3793 -4.6316 -0.0000 -0.0000 18.0486 -6.8008 -25.6561 2.9558 -7.1250 0.0000 -0.0000 -21.7560 5.6056 21.1503 0.0000 0.0000 0.0000 83.3414 -11.1054 42.9787 -15.9058 25.3928 -3.6055 0.0000 0.0000 16.4199 -13.4218 -47.8867 10.0387 7.1250 -0.0000 -0.0000 48.4940 -73.9843 -35.1747
9.8724 15.1827 -37.6464 0.0388 9.5532 0.3004 0.0000 0.0000 0.0000 -25.6989 -22.7267 -8.1199 3.4415 11.3776 33.5643 1.6165 -8.9974 -22.7830 1.7425 -8.3077 -23.6526 0.0000 0.0000 0.0000 27.3863 11.9722 0.9649 -2.5346 -9.9005 28.6550 -1.6536 -18.5716 -36.8369 -0.0687 -1.6914 4.6534 -1.9263 1.8452 3.0974 0.9958 2.4096 -2.3542 1.9421 1.2722 -4.2891 -7.5029 -8.3279 -4.6243 17.1595 -16.2093 31.1648 5.9084 -6.2723 13.4238 -0.0000 -0.0000 0.0000 -83.4562 13.7688 30.1883 18.0971 -28.2813 -4.5952 -0.0000 -0.0000 18.1968 -6.9748 -25.8388 3.0521 -7.1250 0.0000 -0.0000 -21.8408 5.4380 21.3222 -0.0000 -0.0000 0.0000 83.5863 -11.4205 43.5584 -15.9376 25.4359 -3.6191 0.0000 0.0000 16.0005 -13.3561 -47.5417 9.9353 7.1250 -0.0000 -0.0000 47.5603 -73.7563 -34.2165
9.8681 15.1820 -37.6398 -0.0736 9.8017 0.2131 0.0000 0.0000 0.0000 -25.5918 -22.7666 -8.0460 3.4482 11.3875 33.5982 1.6066 -9.2219 -22.7221 1.6537 -8.1040 -23.0304 0.0000 0.0000 0.0000 27.5897 11.8576 1.0915 -2.5252 -9.8836 28.6005 -1.6205 -18.6520 -36.7396 -0.1040 -2.0790 5.7241 -1.7655 1.8822 3.3041 0.8834 2.4597 -2.5073 1.7226 1.2938 -4.5560 -7.3692 -8.3463 -4.5982 17.1073 -16.2237 31.0958 5.8568 -6.2716 13.3708 -0.0000 -0.0000 0.0000 -83.3041 14.2541 30.4370 18.0474 -28.2179 -4.5716 -0.0000 -0.0000 18.3272 -6.9556 -25.6110 3.0187 -7.1250 0.0000 -0.0000 -21.8459 5.6508 21.2327 -0.0000 -0.0000 0.0000 83.8231 -11.8085 44.0417 -16.0460 25.5829 -3.6658 0.0000 0.0000 15.9762 -13.0096 -47.1660 9.6164 7.1250 -0.0000 -0.0000 46.8278 -73.4014 -33.3108
9.8674 15.1804 -37.6379 -0.1112 9.9618 0.0707 0.0000 0.0000 0.0000 -25.6081 -22.7890 -7.8977 3.4564 11.3996 33.6398 1.5899 -9.3084 -22.6080 1.6054 -7.9907 -22.6857 0.0000 0.0000 0.0000 27.6465 11.5708 1.1755 -2.5171 -9.8689 28.5531 -1.5422 -18.7489 -36.4196 -0.1297 -2.3211 6.3939 -1.5950 1.9447 3.5475 0.7390 2.5429 -2.5861 1.4617 1.3289 -4.7653 -7.2488 -8.3803 -4.5222 17.1388 -16.2691 30.9354 5.8345 -6.2851 13.2839 -0.0000 -0.0000 0.0000 -83.1330 14.6332 30.8481 17.9932 -28.1485 -4.5461 -0.0000 -0.0000 18.3532 -6.7405 -25.4836 2.9111 -7.1250 0.0000 -0.0000 -21.7341 5.7660 21.0539 -0.0000 -0.0000 0.0000 84.0605 -11.9786 44.2674 -16.0819 25.6315 -3.6813 0.0000 0.0000 16.6884 -11.3255 -47.5748 8.4097 7.1250 -0.0000 -0.0000 49.4548 -73.0290 -35.0426
9.8586 15.1805 -37.6310 -0.1352 10.1342 -0.0184 0.0000 0.0000 0.0000 -25.5647 -22.7030 -7.8134 3.4603 11.4053 33.6593 1.5786 -9.5639 -22.5417 1.6167 -8.0173 -22.7665 0.0000 0.0000 0.0000 27.7517 11.3770 1.2617 -2.5127 -9.8609 28.5275 -1.4919 -18.8877 -36.2862 -0.1382 -2.3956 6.6002 -1.6463 1.9737 3.5906 0.6621 2.5748 -2.6145 1.4063 1.3455 -4.8196 -7.2524 -8.3137 -4.4916 17.2805 -16.1754 30.7592 5.9003 -6.2389 13.2000 0.0000 -0.0000 0.0000 -83.0346 15.0424 31.2090 17.9689 -28.1174 -4.5346 -0.0000 -0.0000 18.4501 -6.5134 -25.7901 2.8437 -7.1250 0.0000 -0.0000 -21.5858 5.4740 21.0145 0.0000 -0.0000 0.0000 84.1566 -12.1023 45.4177 -16.0132 25.5386 -3.6517 0.0000 0.0000 15.1508 -13.6185 -47.0542 10.0562 7.1250 -0.0000 -0.0000 45.9589 -73.5568 -32.7678
9.8511 15.1768 -37.6288 -0.1428 10.2844 -0.1884 0.0000 0.0000 0.0000 -25.5600 -22.4819 -7.7327 3.4614 11.4070 33.6652 1.5313 -9.8177 -22.2221 1.6194 -8.0238 -22.7863 0.0000 0.0000 0.0000 27.8221 11.1498 1.3914 -2.5141 -9.8635 28.5357 -1.4804 -18.9247 -36.2610 -0.1350 -2.3682 6.5243 -1.7424 1.9454 3.6845 0.6655 2.5300 -2.5509 1.4651 1.3258 -4.8094 -7.4037 -8.1412 -4.7063 17.3544 -15.8937 30.6748 5.9889 -6.1159 13.1804 0.0000 0.0000 0.0000 -83.1816 15.4390 31.2616 18.0112 -28.1715 -4.5545 -0.0000 -0.0000 18.6132 -6.5090 -25.8787 2.8509 -7.1250 0.0000 -0.0000 -21.5774 5.3909 21.0416 0.0000 0.0000 0.0000 84.0911 -11.9946 46.1647 -16.0551 25.5952 -3.6697 0.0000 0.0000 14.4745 -13.2423 -46.8647 9.7442 7.1250 -0.0000 -0.0000 45.7943 -73.3007 -32.4085
